<svg version="1" xmlns="http://www.w3.org/2000/svg" width="682.667" height="682.667" viewBox="0 0 512.000000 512.000000"><path d="M310.5 9.4c-1.6.8-18.7 11.7-38 24.4-19.2 12.7-40.2 26.4-46.6 30.6L214.3 72l-4.9-1.5c-2.7-.7-8.3-2.3-12.4-3.4s-18.3-5-31.5-8.6C117 45.1 117 45.1 112.2 46c-4.5.8-8.5 3.1-22.2 12.7-10.8 7.5-32.9 22.9-63.2 44C15.5 110.6 5 118.4 3.6 120c-2.9 3.5-4.1 8.5-3.3 13.5.3 1.9 7.5 22.5 16.1 45.7 8.5 23.3 21.8 59.8 29.6 81.3 16.4 45.2 35.3 96.8 38 104 1 2.7 4.6 12.6 8 22 3.4 9.3 7.9 21.7 10.1 27.5 11.6 31.9 25.8 71 27 74.5 3.4 10.1 10.2 15.5 19.3 15.5 6-.1 10.4-2.6 20.3-11.7 4.8-4.5 9.7-9 10.9-10 1.2-1 5.7-5 10-9 4.3-3.9 8.8-8 10-9 2.8-2.4 18.1-16.4 25.8-23.5 5.5-5.2 8.7-6.9 15.6-8.3.8-.2 7.1-1.7 14-3.5 6.9-1.7 13.6-3.4 14.9-3.6 1.4-.3 5.6-1.4 9.5-2.4 3.9-1.1 8.2-2.1 9.6-2.4 1.4-.3 6.3-1.5 11-2.6 4.7-1.2 9.3-2.3 10.3-2.5.9-.2 2.3-.7 3-1.1 1.3-.7 25.2-15.7 34.2-21.4 50.8-32.3 57.5-36.3 61-36.3 3.2-.1 19.2 1.1 26 1.8 3.9.5 11.2 1 26.5 2.1 4.1.2 8.9.7 10.5.9 1.7.2 7.6.7 13.3 1.1 12.5.8 17.4-.6 22.6-6.8 5.7-6.6 5.7-9.3-.4-37.7-5.9-27.4-9.7-45.3-10.5-49.1-.3-1.4-.7-3.4-.9-4.5-1-4.5-7.8-36.1-8.2-38-.2-1.1-.6-2.9-.8-4-.3-1.1-1.8-8.5-3.5-16.5-1.6-8-3.9-18.8-5.1-24-1.9-8.8-4.5-21.1-5.6-27-.5-2.7-4.6-21.4-6.9-32-1.9-8.5-13.2-61.8-13.9-65-2.8-14.6-5.9-26.6-7.5-28.7-4.5-5.6-9.2-7.9-18.1-8.8-2.5-.3-7-.7-10-1-3-.3-7.1-.8-9-1.1-1.9-.3-5.3-.7-7.5-.9-2.2-.3-6.2-.7-9-1-2.7-.4-6.8-.8-9-1.1-2.2-.2-5.6-.6-7.5-.9-1.9-.2-6-.7-9-1-8.5-1-12.2-1.4-16-1.9-1.9-.3-6.2-.8-9.5-1.1-3.3-.3-8.9-1-12.5-1.5-8.8-1.3-12.9-1.2-16.5.4z"/></svg>